<svg width="32" height="32" viewBox="0 0 32 32" fill="none" xmlns="http://www.w3.org/2000/svg">
<path opacity="0.15" fill-rule="evenodd" clip-rule="evenodd" d="M10.6665 13.3334V26.6667H23.147C24.4182 26.6667 25.5126 25.7695 25.7619 24.523L27.3619 16.523C27.6919 14.8729 26.4298 13.3334 24.747 13.3334H18.6665L21.9008 8.48188C22.9238 6.94751 22.1178 4.86289 20.3288 4.41563L20.2654 4.39978C19.2855 4.1548 18.2513 4.48449 17.5939 5.25138L10.6665 13.3334Z" fill="#FF0000"/>
<path d="M10.6668 13.3334V26.6667M10.6668 13.3334L5.3335 13.3334V26.6667L10.6668 26.6667M10.6668 13.3334L17.5943 5.25138C18.2516 4.48449 19.2858 4.1548 20.2657 4.39978L20.3291 4.41563C22.1182 4.86289 22.9241 6.94751 21.9012 8.48188L18.6668 13.3334H24.7474C26.4301 13.3334 27.6923 14.8729 27.3622 16.523L25.7622 24.523C25.5129 25.7695 24.4185 26.6667 23.1474 26.6667L10.6668 26.6667" stroke="#FF0000" stroke-width="2.0625" stroke-linecap="round" stroke-linejoin="round"/>
</svg>
