<svg width="32" height="32" viewBox="0 0 32 32" fill="none" xmlns="http://www.w3.org/2000/svg">
<path opacity="0.15" d="M27.9992 21.9689V25.5819C28.0048 26.9631 26.7629 28.1164 25.3685 27.9906C13.3333 28 4 18.58 4.00942 6.62558C3.88383 5.2386 5.03143 4.00141 6.41081 4.00012H10.031C10.6166 3.99436 11.1844 4.20134 11.6284 4.58246C12.8908 5.66599 13.7028 9.3437 13.3904 10.8057C13.1465 11.9472 11.9959 12.7457 11.2136 13.5265C12.9314 16.5416 15.4329 19.0381 18.454 20.7525C19.2362 19.9718 20.0364 18.8234 21.1801 18.58C22.6473 18.2677 26.3486 19.0809 27.4278 20.3521C27.8105 20.8028 28.0139 21.3783 27.9992 21.9689Z" fill="#FF0000"/>
<path d="M19.3333 8.66667C20.3162 8.85843 21.2919 9.2919 22 10C22.7081 10.7081 23.1416 11.6838 23.3333 12.6667M20 4C22.042 4.22685 23.8796 5.21476 25.3333 6.66667C26.7871 8.11857 27.7706 9.95825 28 12M27.9992 21.9689V25.5819C28.0048 26.963 26.7629 28.1164 25.3685 27.9906C13.3333 28 4 18.58 4.00942 6.62558C3.88383 5.2386 5.03143 4.00141 6.41081 4.00012H10.031C10.6166 3.99436 11.1844 4.20134 11.6284 4.58246C12.8908 5.66599 13.7028 9.3437 13.3904 10.8057C13.1465 11.9472 11.9959 12.7457 11.2136 13.5265C12.9314 16.5416 15.4329 19.0381 18.454 20.7525C19.2362 19.9718 20.0364 18.8234 21.1801 18.58C22.6473 18.2677 26.3486 19.0809 27.4278 20.3521C27.8105 20.8028 28.0139 21.3783 27.9992 21.9689Z" stroke="#FF0000" stroke-width="2" stroke-linecap="round" stroke-linejoin="round"/>
</svg>
