<svg width="13" height="13" viewBox="0 0 13 13" fill="none" xmlns="http://www.w3.org/2000/svg">
<path d="M5.54078 0.939209C5.79024 0.171451 6.87642 0.17145 7.12588 0.939209L8.01719 3.68237C8.12875 4.02572 8.44871 4.25819 8.80973 4.25819H11.6941C12.5013 4.25819 12.837 5.2912 12.1839 5.76571L9.85041 7.46107C9.55834 7.67328 9.43612 8.04942 9.54769 8.39277L10.439 11.1359C10.6885 11.9037 9.80972 12.5421 9.15663 12.0676L6.82315 10.3723C6.53108 10.1601 6.13558 10.1601 5.84351 10.3723L3.51004 12.0676C2.85694 12.5421 1.97821 11.9037 2.22767 11.1359L3.11898 8.39277C3.23054 8.04942 3.10832 7.67328 2.81625 7.46107L0.482776 5.76571C-0.170319 5.2912 0.165328 4.25819 0.972597 4.25819H3.85693C4.21795 4.25819 4.53791 4.02573 4.64948 3.68237L5.54078 0.939209Z" fill="#FCB547"/>
</svg>
